<svg width="41" height="41" viewBox="0 0 41 41" fill="none" xmlns="http://www.w3.org/2000/svg">
<path fill-rule="evenodd" clip-rule="evenodd" d="M5.125 11.9583V29.0416C5.125 30.9286 6.65469 32.4583 8.54167 32.4583H32.4583C34.3453 32.4583 35.875 30.9286 35.875 29.0416V11.9583C35.875 10.0713 34.3453 8.54163 32.4583 8.54163H8.54167C6.65469 8.54163 5.125 10.0713 5.125 11.9583Z" stroke="#FFF500" stroke-width="2" stroke-linecap="round" stroke-linejoin="round"/>
<path d="M25.625 17.0833H30.75" stroke="#FFF500" stroke-width="2" stroke-linecap="round"/>
<path d="M25.625 22.2083H30.75" stroke="#FFF500" stroke-width="2" stroke-linecap="round"/>
<path fill-rule="evenodd" clip-rule="evenodd" d="M18.7917 17.0833C18.7917 18.9703 17.262 20.5 15.375 20.5C13.488 20.5 11.9583 18.9703 11.9583 17.0833C11.9583 15.1963 13.488 13.6666 15.375 13.6666C16.2812 13.6666 17.1502 14.0266 17.791 14.6673C18.4317 15.3081 18.7917 16.1771 18.7917 17.0833Z" stroke="#FFF500" stroke-width="2" stroke-linecap="round" stroke-linejoin="round"/>
<path d="M8.54168 27.3333C13.296 21.9743 18.8805 23.6587 22.2083 27.3333" stroke="#FFF500" stroke-width="2" stroke-linecap="round"/>
</svg>
