<svg width="41" height="41" viewBox="0 0 41 41" fill="none" xmlns="http://www.w3.org/2000/svg">
<path fill-rule="evenodd" clip-rule="evenodd" d="M16.0891 17.0843H11.2443C10.5334 17.0784 9.84925 17.3551 9.34241 17.8537C8.83557 18.3522 8.54753 19.0316 8.54167 19.7425V29.8029C8.55482 31.2825 9.76456 32.4716 11.2443 32.4593H16.0891C16.8 32.4652 17.4841 32.1885 17.9909 31.69C18.4978 31.1915 18.7858 30.512 18.7917 29.8012V19.7425C18.7858 19.0316 18.4978 18.3522 17.9909 17.8537C17.4841 17.3551 16.8 17.0784 16.0891 17.0843Z" stroke="#FFF500" stroke-width="2" stroke-linecap="round" stroke-linejoin="round"/>
<path fill-rule="evenodd" clip-rule="evenodd" d="M16.0891 6.83441H11.2443C9.79431 6.79419 8.58538 7.93511 8.54167 9.38495V11.1172C8.58538 12.567 9.79431 13.708 11.2443 13.6677H16.0891C17.539 13.708 18.748 12.567 18.7917 11.1172V9.38495C18.748 7.93511 17.539 6.79419 16.0891 6.83441Z" stroke="#FFF500" stroke-width="2" stroke-linecap="round" stroke-linejoin="round"/>
<path fill-rule="evenodd" clip-rule="evenodd" d="M24.9109 22.2096H29.754C30.4652 22.2159 31.1498 21.9394 31.657 21.4408C32.1642 20.9423 32.4525 20.2626 32.4583 19.5514V9.49273C32.4525 8.78184 32.1644 8.10241 31.6576 7.6039C31.1508 7.10539 30.4666 6.82865 29.7558 6.83457H24.9109C24.2 6.82865 23.5159 7.10539 23.0091 7.6039C22.5022 8.10241 22.2142 8.78184 22.2083 9.49273V19.5514C22.2142 20.2623 22.5022 20.9417 23.0091 21.4402C23.5159 21.9387 24.2 22.2155 24.9109 22.2096Z" stroke="#FFF500" stroke-width="2" stroke-linecap="round" stroke-linejoin="round"/>
<path fill-rule="evenodd" clip-rule="evenodd" d="M24.9109 32.4594H29.754C31.2046 32.5005 32.4146 31.3593 32.4583 29.9088V28.1766C32.4146 26.7267 31.2057 25.5858 29.7558 25.626H24.9109C23.461 25.5858 22.252 26.7267 22.2083 28.1766V29.9071C22.2511 31.3576 23.4603 32.4996 24.9109 32.4594Z" stroke="#FFF500" stroke-width="2" stroke-linecap="round" stroke-linejoin="round"/>
</svg>
