<svg width="39" height="39" viewBox="0 0 39 39" fill="none" xmlns="http://www.w3.org/2000/svg">
<path fill-rule="evenodd" clip-rule="evenodd" d="M22.5046 13.8369L19.5 8.125L16.4954 13.8369C16.2831 14.2543 15.9759 14.6161 15.5984 14.8931C15.219 15.1716 14.7801 15.358 14.3162 15.4375L8.125 16.6514L12.4475 21.8205C13.0386 22.4684 13.3176 23.342 13.2113 24.2125L12.389 30.875L18.0895 28.1125C18.5293 27.8995 19.0114 27.7884 19.5 27.7875C19.9584 27.7889 20.4098 27.9004 20.8163 28.1125L26.65 30.7044L25.8278 24.1215C25.7238 23.2529 26.0032 22.382 26.5931 21.736L30.875 16.6514L24.6838 15.4375C24.2194 15.3582 23.7798 15.1718 23.4 14.8931C23.0231 14.6159 22.7164 14.2541 22.5046 13.8369Z" stroke="#FFF500" stroke-width="2" stroke-linecap="round" stroke-linejoin="round"/>
</svg>
