<svg width="41" height="41" viewBox="0 0 41 41" fill="none" xmlns="http://www.w3.org/2000/svg">
<path fill-rule="evenodd" clip-rule="evenodd" d="M24.6406 12.4383C24.6387 14.5881 22.8948 16.3295 20.745 16.3282C18.5953 16.327 16.8534 14.5835 16.854 12.4338C16.8547 10.284 18.5976 8.54163 20.7473 8.54163C21.7803 8.54208 22.7709 8.95288 23.501 9.68365C24.2311 10.4144 24.6411 11.4053 24.6406 12.4383Z" stroke="#FFF500" stroke-width="2" stroke-linecap="round" stroke-linejoin="round"/>
<path fill-rule="evenodd" clip-rule="evenodd" d="M24.7653 22.0699H16.7361C13.931 22.1581 11.7026 24.4576 11.7026 27.2641C11.7026 30.0707 13.931 32.3702 16.7361 32.4583H24.7653C27.5705 32.3702 29.7989 30.0707 29.7989 27.2641C29.7989 24.4576 27.5705 22.1581 24.7653 22.0699V22.0699Z" stroke="#FFF500" stroke-width="2" stroke-linecap="round" stroke-linejoin="round"/>
<path fill-rule="evenodd" clip-rule="evenodd" d="M34.4875 15.416C34.4865 17.0603 33.153 18.3925 31.5087 18.3919C29.8644 18.3913 28.5319 17.058 28.5322 15.4137C28.5325 13.7694 29.8656 12.4366 31.5099 12.4366C32.2999 12.4366 33.0575 12.7506 33.616 13.3094C34.1744 13.8682 34.4879 14.626 34.4875 15.416V15.416Z" stroke="#FFF500" stroke-width="2" stroke-linecap="round" stroke-linejoin="round"/>
<path fill-rule="evenodd" clip-rule="evenodd" d="M6.54941 15.416C6.54941 17.0605 7.88254 18.3936 9.52703 18.3936C11.1715 18.3936 12.5047 17.0605 12.5047 15.416C12.5047 13.7715 11.1715 12.4384 9.52703 12.4384C7.88254 12.4384 6.54941 13.7715 6.54941 15.416V15.416Z" stroke="#FFF500" stroke-width="2" stroke-linecap="round" stroke-linejoin="round"/>
<path d="M32.3503 22.2145C31.798 22.2145 31.3503 22.6622 31.3503 23.2145C31.3503 23.7668 31.798 24.2145 32.3503 24.2145V22.2145ZM34.5831 23.2145L34.6038 22.2147C34.5969 22.2145 34.59 22.2145 34.5831 22.2145V23.2145ZM34.5831 31.1599V32.1599C34.59 32.1599 34.5969 32.1599 34.6038 32.1597L34.5831 31.1599ZM32.3503 30.1599C31.798 30.1599 31.3503 30.6077 31.3503 31.1599C31.3503 31.7122 31.798 32.1599 32.3503 32.1599V30.1599ZM8.68649 24.2145C9.23877 24.2145 9.68649 23.7668 9.68649 23.2145C9.68649 22.6622 9.23877 22.2145 8.68649 22.2145V24.2145ZM6.4537 23.2145V22.2145C6.44679 22.2145 6.43987 22.2145 6.43296 22.2147L6.4537 23.2145ZM6.4537 31.1599L6.43296 32.1597C6.43987 32.1599 6.44679 32.1599 6.4537 32.1599V31.1599ZM8.68649 32.1599C9.23877 32.1599 9.68649 31.7122 9.68649 31.1599C9.68649 30.6077 9.23877 30.1599 8.68649 30.1599V32.1599ZM32.3503 24.2145H34.5831V22.2145H32.3503V24.2145ZM34.5624 24.2143C36.1803 24.2478 37.4743 25.569 37.4743 27.1872H39.4743C39.4743 24.4806 37.3099 22.2708 34.6038 22.2147L34.5624 24.2143ZM37.4743 27.1872C37.4743 28.8054 36.1803 30.1266 34.5624 30.1602L34.6038 32.1597C37.3099 32.1036 39.4743 29.8939 39.4743 27.1872H37.4743ZM34.5831 30.1599H32.3503V32.1599H34.5831V30.1599ZM8.68649 22.2145H6.4537V24.2145H8.68649V22.2145ZM6.43296 22.2147C3.7269 22.2708 1.5625 24.4806 1.5625 27.1872H3.5625C3.5625 25.569 4.85654 24.2478 6.47443 24.2143L6.43296 22.2147ZM1.5625 27.1872C1.5625 29.8939 3.7269 32.1036 6.43296 32.1597L6.47443 30.1602C4.85654 30.1266 3.5625 28.8054 3.5625 27.1872H1.5625ZM6.4537 32.1599H8.68649V30.1599H6.4537V32.1599Z" fill="#FFF500"/>
</svg>
