<svg width="57" height="57" viewBox="0 0 57 57" fill="none" xmlns="http://www.w3.org/2000/svg">
<path fill-rule="evenodd" clip-rule="evenodd" d="M39.25 3H17.5C9.49187 3 3 9.49187 3 17.5V39.25C3 47.2581 9.49187 53.75 17.5 53.75H39.25C47.2581 53.75 53.75 47.2581 53.75 39.25V17.5C53.75 9.49187 47.2581 3 39.25 3Z" stroke="black" stroke-width="5" stroke-linecap="round" stroke-linejoin="round"/>
<path fill-rule="evenodd" clip-rule="evenodd" d="M28.375 39.25C22.3689 39.25 17.5 34.3811 17.5 28.375C17.5 22.3689 22.3689 17.5 28.375 17.5C34.3811 17.5 39.25 22.3689 39.25 28.375C39.25 31.2592 38.1042 34.0253 36.0648 36.0648C34.0253 38.1042 31.2592 39.25 28.375 39.25Z" stroke="black" stroke-width="5" stroke-linecap="round" stroke-linejoin="round"/>
<rect x="39.25" y="17.5" width="7.25" height="7.25" rx="3.625" transform="rotate(-90 39.25 17.5)" fill="black"/>
<rect x="41.0625" y="15.6875" width="3.625" height="3.625" rx="1.8125" transform="rotate(-90 41.0625 15.6875)" stroke="black" stroke-width="5" stroke-linecap="round"/>
</svg>
