<svg width="67" height="67" viewBox="0 0 67 67" fill="none" xmlns="http://www.w3.org/2000/svg">
<path d="M49.3905 31.0532C49.1019 30.9149 48.8088 30.7818 48.5118 30.6543C47.9947 21.1253 42.7879 15.67 34.045 15.6141C34.0054 15.6139 33.966 15.6139 33.9264 15.6139C28.6971 15.6139 24.3479 17.846 21.671 21.9078L26.4793 25.2062C28.479 22.1722 31.6174 21.5254 33.9287 21.5254C33.9554 21.5254 33.9822 21.5254 34.0086 21.5257C36.8873 21.544 39.0596 22.381 40.4656 24.0132C41.4887 25.2015 42.173 26.8436 42.5118 28.916C39.9596 28.4822 37.1993 28.3489 34.2485 28.518C25.9362 28.9968 20.5924 33.8447 20.9513 40.5811C21.1334 43.9981 22.8357 46.9377 25.7444 48.858C28.2037 50.4814 31.371 51.2752 34.6628 51.0955C39.0101 50.8572 42.4204 49.1986 44.7996 46.1658C46.6065 43.8627 47.7494 40.878 48.254 37.1173C50.3257 38.3676 51.8611 40.013 52.7091 41.9909C54.151 45.3531 54.2351 50.8781 49.7269 55.3825C45.7771 59.3285 41.0291 61.0356 33.8537 61.0883C25.8942 61.0293 19.8745 58.4767 15.9607 53.5012C12.2957 48.8423 10.4016 42.113 10.331 33.5C10.4016 24.8869 12.2957 18.1576 15.9607 13.4987C19.8745 8.52327 25.8941 5.97068 33.8536 5.91153C41.8708 5.97113 47.9954 8.53601 52.059 13.5354C54.0516 15.987 55.5538 19.0702 56.5442 22.6649L62.1788 21.1616C60.9784 16.7368 59.0895 12.9239 56.519 9.76176C51.3094 3.35233 43.6903 0.0680985 33.8732 0H33.8339C24.0368 0.0678619 16.503 3.36459 11.4418 9.79851C6.93796 15.5239 4.61477 23.4904 4.53671 33.4764L4.53646 33.5L4.53671 33.5236C4.61477 43.5095 6.93796 51.4762 11.4418 57.2016C16.503 63.6353 24.0368 66.9323 33.8339 67H33.8732C42.5834 66.9396 48.723 64.6592 53.7808 59.6059C60.3981 52.9949 60.1988 44.7082 58.0178 39.6211C56.4531 35.9731 53.4698 33.0101 49.3905 31.0532ZM34.3516 45.1926C30.7085 45.3977 26.9237 43.7625 26.737 40.26C26.5987 37.6631 28.5852 34.7653 34.5752 34.4201C35.2612 34.3806 35.9343 34.3612 36.5956 34.3612C38.7714 34.3612 40.8068 34.5726 42.6574 34.9771C41.9671 43.5971 37.9185 44.9968 34.3516 45.1926Z" fill="black"/>
</svg>
